<svg version="1.1" xmlns="http://www.w3.org/2000/svg" xmlns:xlink="http://www.w3.org/1999/xlink" width="185.03227" height="184.98267" viewBox="0,0,185.03227,184.98267"><g transform="translate(-147.48386,-87.50867)"><g data-paper-data="{&quot;isPaintingLayer&quot;:true}" fill-rule="nonzero" stroke="none" stroke-width="1" stroke-linecap="butt" stroke-linejoin="miter" stroke-miterlimit="10" stroke-dasharray="" stroke-dashoffset="0" style="mix-blend-mode: normal"><path d="M242.65858,128.80928c0.29118,0.0156 0.58194,0.02749 0.87338,0.03656c5.08528,0.2022 10.22576,1.4817 14.95334,3.33239c0.20081,0.07676 0.40164,0.15348 0.60248,0.23016c1.13034,0.43661 2.22192,0.92006 3.29527,1.48195c0.29842,0.15572 0.59806,0.30897 0.89775,0.46224c3.4131,1.7528 6.55608,3.82642 9.50751,6.28208c0.25108,0.2112 0.25108,0.2112 0.51899,0.39534c0.06508,0.05272 0.13016,0.10544 0.19722,0.15976c0,0.07625 0,0.1525 0,0.23107c0.06322,0.02657 0.12644,0.05313 0.19158,0.0805c0.3492,0.19433 0.6094,0.43913 0.90237,0.71108c0.09041,0.08391 0.09041,0.08391 0.18265,0.16951c0.62478,0.5835 1.23258,1.18396 1.83579,1.78964c0.18302,0.18365 0.36666,0.36666 0.55036,0.54963c0.11858,0.11865 0.23712,0.23734 0.35562,0.35607c0.10492,0.10505 0.20984,0.2101 0.31794,0.31833c0.74713,0.78632 0.74713,0.78632 0.74713,1.10867c0.07625,0 0.1525,0 0.23107,0c0.1616,0.17379 0.31401,0.35615 0.46213,0.54156c0.09353,0.11706 0.18705,0.23412 0.28342,0.35472c0.09818,0.12478 0.19626,0.24964 0.29425,0.37458c0.08995,0.11408 0.17991,0.22816 0.27258,0.34569c2.48188,3.18752 4.60812,6.5661 6.29869,10.2396c0.13332,0.28263 0.27398,0.56062 0.41618,0.83888c0.31639,0.62918 0.58606,1.27323 0.84709,1.92705c0.07442,0.18627 0.07442,0.18627 0.15034,0.3763c0.52412,1.33435 0.95736,2.69324 1.37325,4.06448c0.04468,0.14223 0.08936,0.28445 0.13539,0.43099c0.56972,1.87961 0.95521,3.82932 1.27988,5.76444c0.01742,0.10364 0.03485,0.20727 0.0528,0.31405c0.27396,1.70328 0.43058,3.40849 0.51764,5.13042c0.00504,0.09707 0.01008,0.19414 0.01528,0.29414c0.08559,1.6932 0.07795,3.36293 -0.01844,5.05634c-0.01609,0.29525 -0.0278,0.59002 -0.03656,0.88556c-0.09445,2.81433 -0.62243,5.61268 -1.25281,8.34993c-0.02647,0.11497 -0.05294,0.22995 -0.08022,0.3484c-1.49602,6.35756 -4.35071,12.54357 -8.23812,17.7902c-0.05542,0.07521 -0.11084,0.15042 -0.16794,0.22791c-0.66097,0.89574 -1.33263,1.7782 -2.04568,2.63333c-0.21484,0.2544 -0.21484,0.2544 -0.39985,0.52351c-0.05257,0.06493 -0.10514,0.12987 -0.15931,0.19677c-0.07625,0 -0.1525,0 -0.23107,0c-0.02899,0.06565 -0.05799,0.1313 -0.08786,0.19894c-0.56075,1.03059 -1.62758,1.88137 -2.45738,2.70796c-0.19279,0.19217 -0.38496,0.38496 -0.57707,0.5778c-0.1246,0.12452 -0.24923,0.249 -0.3739,0.37345c-0.05634,0.05657 -0.11268,0.11315 -0.17072,0.17143c-1.06094,1.05384 -1.06094,1.05384 -1.41649,1.05384c0,0.07625 0,0.1525 0,0.23107c-0.39791,0.37557 -0.83983,0.70306 -1.27086,1.03979c-0.07303,0.05719 -0.14606,0.11438 -0.22131,0.1733c-2.73829,2.13668 -5.59933,3.98592 -8.6747,5.60333c-0.08318,0.0439 -0.16635,0.08779 -0.25205,0.13302c-1.21908,0.63898 -2.47482,1.18599 -3.74493,1.7151c-0.23919,0.09985 -0.47764,0.20124 -0.71593,0.30322c-9.2727,3.86624 -20.08523,4.47205 -29.83131,2.23889c-0.1046,-0.02338 -0.20921,-0.04676 -0.31698,-0.07085c-3.92027,-0.8773 -7.7913,-2.21189 -11.35231,-4.08313c-0.24913,-0.13045 -0.4995,-0.25831 -0.75,-0.38609c-2.55527,-1.31257 -4.94135,-2.84142 -7.22123,-4.587c-0.12616,-0.09499 -0.25238,-0.18991 -0.37864,-0.28477c-0.68743,-0.51906 -1.34682,-1.05639 -1.9794,-1.64214c-0.28089,-0.25179 -0.56952,-0.48473 -0.86604,-0.71771c-0.76506,-0.62298 -1.45669,-1.31211 -2.15027,-2.01276c-0.21601,-0.21814 -0.43295,-0.43532 -0.65004,-0.65238c-0.13981,-0.14037 -0.27956,-0.2808 -0.41926,-0.42129c-0.06379,-0.06392 -0.12758,-0.12784 -0.19331,-0.1937c-1.10373,-1.11715 -1.10373,-1.11715 -1.10373,-1.46934c-0.07625,0 -0.1525,0 -0.23107,0c-0.1616,-0.17379 -0.31401,-0.35615 -0.46213,-0.54156c-0.14029,-0.17559 -0.14029,-0.17559 -0.28342,-0.35472c-0.09818,-0.12478 -0.19626,-0.24964 -0.29425,-0.37458c-0.08995,-0.11408 -0.17991,-0.22816 -0.27258,-0.34569c-4.09162,-5.25493 -7.1358,-11.07884 -9.08555,-17.44631c-0.04498,-0.14297 -0.08995,-0.28594 -0.13629,-0.43325c-0.56848,-1.87926 -0.95442,-3.82771 -1.27898,-5.76218c-0.01742,-0.10364 -0.03485,-0.20727 -0.0528,-0.31405c-0.27356,-1.70081 -0.4305,-3.40377 -0.51764,-5.1232c-0.00504,-0.09684 -0.01008,-0.19369 -0.01528,-0.29346c-0.08769,-1.7319 -0.07704,-3.44166 0.01844,-5.17391c0.0156,-0.29118 0.02749,-0.58194 0.03656,-0.87338c0.235,-5.91037 1.90593,-11.75545 4.25665,-17.14845c0.03492,-0.08025 0.06985,-0.16051 0.10583,-0.24319c1.55849,-3.54193 3.5418,-6.86151 5.90186,-9.92367c0.09602,-0.12573 0.192,-0.25149 0.28793,-0.37729c0.28741,-0.37623 0.57718,-0.75057 0.8674,-1.12464c0.08921,-0.11602 0.17842,-0.23203 0.27033,-0.35156c0.08236,-0.10559 0.16472,-0.21118 0.24957,-0.31997c0.10902,-0.14051 0.10902,-0.14051 0.22023,-0.28387c0.06076,-0.06598 0.12153,-0.13195 0.18413,-0.19993c0.07625,0 0.1525,0 0.23107,0c0.02652,-0.06318 0.05304,-0.12637 0.08036,-0.19146c0.19487,-0.34999 0.44077,-0.61075 0.71348,-0.90429c0.05606,-0.06037 0.11211,-0.12074 0.16987,-0.18294c0.57351,-0.61415 1.1611,-1.21421 1.75529,-1.80831c0.1775,-0.17775 0.35405,-0.35642 0.53059,-0.53513c0.61223,-0.61563 1.23692,-1.19496 1.92685,-1.72455c0.26421,-0.2072 0.51165,-0.42691 0.75906,-0.65379c0.54485,-0.48894 1.12138,-0.9257 1.71257,-1.35694c0.22809,-0.16677 0.45501,-0.33507 0.68203,-0.50331c4.5147,-3.32575 9.64572,-5.962 15.00749,-7.62063c0.09114,-0.02826 0.18229,-0.05652 0.27619,-0.08563c3.95044,-1.20935 8.0412,-1.92215 12.16521,-2.13115c0.09684,-0.00504 0.19369,-0.01008 0.29346,-0.01528c1.7319,-0.08769 3.44166,-0.07704 5.17391,0.01844zM233.49901,135.25208c-0.29115,0.04203 -0.58252,0.08169 -0.87405,0.12089c-2.7646,0.38707 -5.47243,1.2097 -8.10623,2.11975c0,0.11438 0,0.22875 0,0.3466c0.18894,0.16396 0.18894,0.16396 0.4466,0.30869c0.09899,0.06083 0.19798,0.12166 0.29997,0.18434c0.11001,0.0669 0.22001,0.1338 0.33335,0.20273c1.69168,1.06921 3.2691,2.26142 4.80501,3.54284c0.07005,0.0582 0.1401,0.1164 0.21227,0.17636c3.75258,3.13578 5.88819,6.48999 6.34087,11.42303c0.26482,3.27763 0.24154,6.56649 0.14724,9.85055c-0.00674,0.23472 -0.01327,0.46945 -0.01978,0.70418c-0.11433,4.07191 -0.33815,8.13485 -0.6657,12.19516c-4.179,0.33026 -8.3606,0.55125 -12.55098,0.66507c-0.23635,0.00644 -0.47269,0.01309 -0.70903,0.01974c-14.0936,0.38929 -14.0936,0.38929 -19.03108,-4.18126c-0.80861,-0.77042 -1.5409,-1.6015 -2.25312,-2.46069c-0.08702,-0.10449 -0.08702,-0.10449 -0.1758,-0.21108c-1.28595,-1.54956 -2.47177,-3.15241 -3.51461,-4.87685c-0.05937,-0.09802 -0.11873,-0.19604 -0.1799,-0.29703c-0.05072,-0.0859 -0.10145,-0.1718 -0.15371,-0.2603c-0.0446,-0.06003 -0.0892,-0.12006 -0.13515,-0.18191c-0.07625,0 -0.1525,0 -0.23107,0c-1.33614,3.61515 -2.21831,7.36187 -2.54172,11.20665c-0.00668,0.07869 -0.01337,0.15738 -0.02025,0.23846c-0.27458,3.45873 -0.17321,6.98957 0.32132,10.42043c0.04175,0.29042 0.08147,0.58105 0.12089,0.8718c0.38834,2.75832 1.20499,5.37353 2.11975,7.99431c0.67694,-0.52056 1.05645,-1.04147 1.47721,-1.77758c0.94232,-1.57104 2.01173,-3.02582 3.17297,-4.43951c0.05289,-0.06472 0.10578,-0.12943 0.16027,-0.19611c2.73461,-3.32546 5.81585,-5.32856 10.15479,-5.78371c3.68191,-0.3513 7.38717,-0.31067 11.08012,-0.21561c0.15916,0.00398 0.31831,0.00796 0.47747,0.01193c4.14288,0.10489 8.27848,0.3131 12.41163,0.61628c0.33744,4.11727 0.563,8.23717 0.67936,12.36654c0.00659,0.23305 0.01339,0.46609 0.02019,0.69913c0.39829,13.8989 0.39829,13.8989 -4.2628,18.93112c-0.78712,0.82638 -1.63486,1.57725 -2.50943,2.30914c-0.07104,0.05976 -0.14207,0.11953 -0.21526,0.1811c-1.81113,1.51911 -3.69929,2.88411 -5.72744,4.10082c0.03813,0.11438 0.07625,0.22875 0.11553,0.3466c0.26108,0.12762 0.26108,0.12762 0.58624,0.21978c0.12167,0.03824 0.24335,0.07647 0.36871,0.11587c0.13046,0.03935 0.26092,0.07871 0.39534,0.11926c0.1324,0.04099 0.2648,0.08199 0.4012,0.12422c0.37848,0.11661 0.75752,0.23122 1.13682,0.34513c0.08692,0.02645 0.17384,0.05291 0.26339,0.08016c8.60549,2.6129 19.36147,2.54451 27.69548,-1.00442c-0.20258,-0.43845 -0.46232,-0.70144 -0.80873,-1.03979c-0.09293,-0.11438 -0.18586,-0.22875 -0.28161,-0.3466c-0.28532,-0.35397 -0.28532,-0.35397 -0.63543,-0.62821c-0.27063,-0.22645 -0.46617,-0.41851 -0.68597,-0.68597c-0.60914,-0.72766 -1.34692,-1.27769 -2.11318,-1.82871c-3.20609,-2.32349 -6.91122,-5.21603 -7.65197,-9.31383c-0.53168,-3.51155 -0.30905,-7.14003 -0.11753,-10.67164c0.05905,-1.10217 0.09711,-2.20371 0.12156,-3.30717c0.00175,-0.07866 0.0035,-0.15732 0.0053,-0.23836c0.00868,-0.39495 0.01702,-0.78991 0.02519,-1.18488c0.06733,-3.23238 0.19284,-6.46053 0.35805,-9.68929c3.40479,0.00683 6.80956,0.01541 10.21434,0.02646c0.40188,0.0013 0.80376,0.00259 1.20564,0.00387c0.08001,0.00025 0.16002,0.00051 0.24245,0.00077c1.29582,0.00409 2.59163,0.00696 3.88745,0.00938c1.32943,0.00251 2.65885,0.00636 3.98828,0.01136c0.7468,0.00277 1.4936,0.00493 2.2404,0.00565c0.70258,0.0007 1.40514,0.003 2.10771,0.00655c0.25816,0.00102 0.51632,0.00144 0.77448,0.00124c0.35195,-0.00019 0.70382,0.00173 1.05576,0.00419c0.10261,-0.00056 0.20522,-0.00112 0.31094,-0.0017c0.85937,0.00993 1.28409,0.29166 1.8881,0.89982c0.08727,0.08668 0.17454,0.17335 0.26446,0.26266c0.24099,0.27168 0.24099,0.27168 0.39173,0.53795c0.29147,0.4634 0.67438,0.82323 1.06236,1.20677c0.07819,0.07908 0.15638,0.15816 0.23693,0.23964c0.07551,0.07521 0.15101,0.15042 0.22881,0.22791c0.10287,0.10248 0.10287,0.10248 0.20782,0.20703c0.1995,0.18902 0.1995,0.18902 0.53953,0.27856c0.11855,0.19071 0.23373,0.38353 0.3466,0.57766c0.23973,0.2717 0.44144,0.45053 0.75818,0.62821c0.33004,0.21156 0.43166,0.42491 0.62821,0.75818c0.10723,0.05361 0.10723,0.05361 0.21662,0.10831c0.26736,0.13368 0.36072,0.25082 0.54156,0.48379c0.09293,0.10961 0.18586,0.21922 0.28161,0.33216c0.11438,0 0.22875,0 0.3466,0c0.02859,0.10723 0.05719,0.21446 0.08665,0.32494c0.15477,0.39467 0.25682,0.49628 0.60655,0.71486c0.23107,0.23107 0.23107,0.23107 0.3466,0.46213c0.07625,0.03574 0.1525,0.07149 0.23107,0.10831c0.23107,0.12275 0.23107,0.12275 0.3466,0.46935c0.11438,0.03813 0.22875,0.07625 0.3466,0.11553c0.19857,0.22655 0.19857,0.22655 0.40436,0.50545c0.34331,0.46937 0.34331,0.46937 0.75096,0.88094c0.07625,0 0.1525,0 0.23107,0c0.03813,0.11438 0.07625,0.22875 0.11553,0.3466c0.1525,0 0.30501,0 0.46213,0c0.02859,0.0834 0.05719,0.1668 0.08665,0.25273c0.15711,0.35349 0.35575,0.61 0.60655,0.9026c0.07625,-0.03813 0.1525,-0.07625 0.23107,-0.11553c-0.03813,-0.07625 -0.07625,-0.1525 -0.11553,-0.23107c0.11438,-0.03813 0.22875,-0.07625 0.3466,-0.11553c0.11597,-0.21575 0.11597,-0.21575 0.19451,-0.48515c0.04993,-0.15269 0.04993,-0.15269 0.10087,-0.30846c0.03358,-0.10745 0.06717,-0.2149 0.10177,-0.32561c0.03314,-0.10164 0.06627,-0.20329 0.10041,-0.30801c2.96236,-9.19057 3.03759,-20.20159 -0.72862,-29.18888c-0.68274,0.52494 -1.07146,1.06079 -1.50393,1.79879c-0.98207,1.60183 -2.08702,3.08776 -3.28345,4.53383c-0.05441,0.06609 -0.10883,0.13218 -0.16489,0.20028c-2.89671,3.49746 -6.07674,5.49868 -10.64966,5.94816c-3.49695,0.30683 -7.01021,0.27074 -10.51564,0.17697c-0.15697,-0.00408 -0.31393,-0.00816 -0.4709,-0.01223c-4.08289,-0.10742 -8.15795,-0.32023 -12.23046,-0.63042c-0.05931,-3.40359 -0.10168,-6.80706 -0.12104,-10.21111c-0.00231,-0.40366 -0.00476,-0.80732 -0.0073,-1.21098c-0.0005,-0.08035 -0.00101,-0.16069 -0.00152,-0.24348c-0.00844,-1.29386 -0.02828,-2.5873 -0.0525,-3.88095c-0.02467,-1.33169 -0.03649,-2.66305 -0.03755,-3.99497c-0.00099,-0.74661 -0.00747,-1.49218 -0.02797,-2.23853c-0.13336,-5.07894 -0.13336,-5.07894 1.2835,-6.68526c0.59246,-0.61902 1.24798,-1.15547 1.94385,-1.65354c0.75654,-0.54291 1.42023,-1.18263 2.0771,-1.84002c0.1081,-0.10752 0.1081,-0.10752 0.21839,-0.21721c0.23477,-0.23369 0.46912,-0.4678 0.70342,-0.70197c0.16417,-0.1638 0.32835,-0.32759 0.49254,-0.49137c0.3423,-0.34161 0.68436,-0.68345 1.02628,-1.02544c0.43867,-0.43868 0.87814,-0.87656 1.3178,-1.31425c0.33846,-0.33718 0.67639,-0.67487 1.01418,-1.01272c0.16191,-0.16178 0.32402,-0.32337 0.48631,-0.48477c0.22592,-0.2248 0.45111,-0.4503 0.67612,-0.67601c0.06727,-0.06662 0.13455,-0.13325 0.20386,-0.20189c0.27881,-0.28103 0.46192,-0.4691 0.58888,-0.84998c-0.88859,-0.38146 -1.79182,-0.66352 -2.72223,-0.92426c-0.14368,-0.04047 -0.28736,-0.08094 -0.43539,-0.12264c-6.06443,-1.69413 -12.47399,-2.09866 -18.70927,-1.19374z" fill="#ffffff"/><path d="M233.5596,87.51092c0.24299,0.001 0.48599,0.00171 0.72899,0.00214c0.64072,0.00199 1.28133,0.00821 1.92201,0.01528c0.63366,0.00618 1.26734,0.00799 1.90103,0.01033c2.84418,0.01287 5.68692,0.0637 8.53004,0.14034c0.92826,0.02465 1.85665,0.04193 2.7852,0.0518c0.8349,0.01512 1.44272,0.2722 2.07652,0.81598c0.59582,0.63196 1.00216,1.44163 1.43652,2.18877c0.24312,0.41819 0.48878,0.83489 0.73409,1.25179c0.04746,0.08082 0.09491,0.16164 0.14381,0.24491c0.33613,0.57163 0.6799,1.13767 1.03544,1.69748c0.53,0.83598 1.02952,1.68864 1.52906,2.54307c0.21776,0.37133 0.43789,0.74121 0.65884,1.11065c0.06361,0.10721 0.06361,0.10721 0.12851,0.2166c0.21219,0.35511 0.42993,0.70303 0.66442,1.04388c0.63463,0.93539 1.09635,1.90156 1.52178,2.94834c0.06028,0.1469 0.12058,0.2938 0.18088,0.44069c0.41571,1.01732 0.81202,2.04163 1.20189,3.06909c0.09071,0.23868 0.18188,0.47718 0.27324,0.71561c0.03019,0.0788 0.06038,0.15759 0.09149,0.23878c0.06097,0.15906 0.12198,0.31811 0.18302,0.47714c0.15522,0.40508 0.30883,0.81066 0.45967,1.21739c0.15015,0.40454 0.30422,0.80739 0.46101,1.2094c0.0579,0.15053 0.11439,0.3016 0.16933,0.45324c0.27211,0.74897 0.47665,1.30788 1.21104,1.68098c0.18449,0.0726 0.37075,0.14099 0.55896,0.20331c0.13091,0.05361 0.26182,0.10723 0.39669,0.16247c0.11453,0.0417 0.22905,0.0834 0.34705,0.12636c0.45781,0.16713 0.90121,0.35204 1.34352,0.556c0.73894,0.33928 1.4908,0.64297 2.24521,0.94592c0.95423,0.3832 1.89801,0.77962 2.83055,1.21309c0.27853,0.12927 0.55757,0.25668 0.83761,0.3827c0.12927,0.05912 0.25854,0.11825 0.39173,0.17917c0.87569,0.29631 1.4626,0.05957 2.2583,-0.30914c1.1403,-0.5096 2.29524,-0.97116 3.46064,-1.42015c0.70435,-0.27304 1.39517,-0.56203 2.08097,-0.87859c2.46635,-1.11811 4.94808,-1.85023 7.5904,-2.40709c0.41816,-0.08875 0.83563,-0.18066 1.25314,-0.27244c0.48181,-0.10579 0.96363,-0.21148 1.44576,-0.3158c0.87742,-0.19023 1.74876,-0.39271 2.61863,-0.61478c0.67016,-0.17045 1.34171,-0.33475 2.01415,-0.49598c0.12553,-0.03128 0.25106,-0.06257 0.38039,-0.0948c1.08999,-0.25838 2.26738,-0.46587 3.28055,0.12368c0.90884,0.74066 1.72649,1.59385 2.5539,2.42302c0.13109,0.13101 0.26219,0.262 0.39332,0.39298c0.27272,0.27255 0.54524,0.54531 0.8176,0.81822c0.34684,0.3475 0.6942,0.69448 1.04172,1.0413c0.27011,0.26969 0.53995,0.53967 0.8097,0.80972c0.12791,0.12798 0.2559,0.25588 0.38398,0.38369c0.60873,0.60772 1.20532,1.21799 1.76512,1.87174c0.44306,0.496 0.927,0.95326 1.40234,1.41798c0.17262,0.17007 0.34503,0.34034 0.51744,0.51062c0.4208,0.41556 0.84204,0.83064 1.26519,1.2438c0.29661,0.28969 0.59174,0.58082 0.88599,0.87291c0.16465,0.16266 0.33082,0.32379 0.49703,0.48486c0.78371,0.78049 1.47856,1.65451 1.55818,2.79861c-0.00966,0.66126 -0.18834,1.28215 -0.3539,1.91878c-0.03441,0.13605 -0.06881,0.27209 -0.10426,0.41227c-0.09358,0.36936 -0.18809,0.73846 -0.28303,1.10747c-0.16003,0.62329 -0.31767,1.2472 -0.47584,1.87096c-0.06097,0.24027 -0.12208,0.4805 -0.18321,0.72072c-0.26956,1.06099 -0.53042,2.12376 -0.78548,3.18834c-0.03334,0.13859 -0.06668,0.27718 -0.10104,0.41996c-0.19142,0.79562 -0.19142,0.79562 -0.38037,1.59182c-0.41341,1.75304 -0.93577,3.33587 -1.69521,4.97026c-0.24259,0.54727 -0.46591,1.10204 -0.69094,1.65672c-0.30367,0.74832 -0.61227,1.49077 -0.95405,2.22265c-0.23093,0.51342 -0.44001,1.03577 -0.65201,1.55723c-0.23918,0.58564 -0.49445,1.16113 -0.76867,1.73138c-0.31502,0.76541 -0.13051,1.20137 0.1733,1.94149c0.04239,0.10644 0.08478,0.21287 0.12845,0.32253c0.13602,0.34045 0.27412,0.68002 0.41221,1.01963c0.09039,0.2259 0.18065,0.45185 0.27078,0.67785c0.50712,1.27131 0.50712,1.27131 1.06371,2.52141c0.23457,0.50088 0.42085,1.01169 0.60474,1.53261c0.09068,0.25109 0.18172,0.50205 0.27289,0.75296c0.06104,0.17093 0.12045,0.34244 0.17826,0.51448c0.41025,1.23788 0.41025,1.23788 1.3924,2.04915c0.23397,0.09104 0.47017,0.17664 0.70854,0.25544c0.18211,0.07419 0.36401,0.1489 0.54562,0.2243c0.16686,0.06315 0.33399,0.1256 0.50139,0.18729c0.55429,0.20616 1.09783,0.42335 1.63506,0.67108c0.73296,0.33763 1.47934,0.63849 2.22806,0.93915c0.85731,0.34427 1.70727,0.69641 2.54617,1.08357c0.25026,0.11398 0.50159,0.22196 0.75598,0.32629c0.98899,0.40733 1.87002,0.89997 2.75862,1.49668c0.47147,0.31014 0.95381,0.6031 1.4344,0.89882c0.20988,0.12949 0.41973,0.25901 0.62956,0.38857c0.10148,0.06264 0.20295,0.12529 0.3075,0.18983c0.41313,0.25571 0.82481,0.5137 1.23639,0.77189c0.62549,0.39205 1.25411,0.77862 1.88462,1.16255c0.36607,0.22348 0.73188,0.44741 1.09756,0.67153c0.11533,0.07063 0.23065,0.14126 0.34947,0.21403c0.37261,0.22873 0.74454,0.45853 1.11634,0.68857c0.11736,0.07189 0.23471,0.14377 0.35562,0.21784c1.11149,0.69015 2.00481,1.29168 2.45326,2.57661c0.12606,0.80508 0.08623,1.6299 0.07582,2.44198c-0.00061,0.24246 -0.00093,0.48492 -0.00098,0.72738c-0.00109,0.64668 -0.00663,1.29324 -0.01328,1.93988c-0.00506,0.53422 -0.0078,1.06844 -0.01058,1.60268c-0.0084,1.57303 -0.02504,3.14589 -0.04622,4.7188c-0.00451,0.33552 -0.00882,0.67105 -0.01309,1.00657c-0.01517,1.16147 -0.03614,2.32264 -0.06551,3.48384c-0.00554,0.23041 -0.0101,0.46083 -0.01466,0.69126c-0.00894,0.42057 -0.02159,0.84085 -0.0356,1.26129c-0.00208,0.11896 -0.00415,0.23792 -0.0063,0.36048c-0.03984,0.96049 -0.33847,1.69679 -1.05245,2.35499c-0.47056,0.36919 -0.97979,0.67186 -1.49606,0.9721c-0.20626,0.12183 -0.4125,0.24368 -0.61873,0.36555c-0.10475,0.06154 -0.20951,0.12309 -0.31743,0.1865c-0.49128,0.28951 -0.97973,0.5837 -1.46836,0.87766c-0.19254,0.11556 -0.38509,0.23109 -0.57766,0.3466c-0.14297,0.08578 -0.14297,0.08578 -0.28883,0.1733c-0.86649,0.5199 -0.86649,0.5199 -1.15544,0.69325c-0.19219,0.11532 -0.38437,0.23067 -0.57653,0.34603c-0.48683,0.29223 -0.9739,0.58405 -1.46142,0.87512c-0.09761,0.05838 -0.19523,0.11676 -0.2958,0.17691c-0.19626,0.11729 -0.39267,0.23433 -0.58923,0.35111c-0.43035,0.25689 -0.85607,0.51597 -1.26993,0.7988c-1.38644,0.93968 -2.91991,1.52226 -4.47106,2.1325c-0.32148,0.12658 -0.64278,0.25365 -0.96404,0.38078c-0.1191,0.04713 -0.23821,0.09426 -0.36092,0.14282c-0.24756,0.09798 -0.49512,0.19596 -0.74268,0.29395c-0.61764,0.24438 -1.23549,0.4882 -1.85387,0.73071c-0.11683,0.04595 -0.23366,0.0919 -0.35403,0.13924c-0.21849,0.08592 -0.43709,0.1716 -0.6558,0.25696c-0.63729,0.25102 -1.26192,0.52222 -1.88322,0.81061c-0.19964,0.09024 -0.40273,0.17309 -0.60809,0.2494c-0.27903,0.09221 -0.27903,0.09221 -0.41298,0.35283c-0.05529,0.14578 -0.05529,0.14578 -0.1117,0.2945c-0.04207,0.10738 -0.08414,0.21476 -0.12749,0.32539c-0.04252,0.11438 -0.08504,0.22875 -0.12885,0.3466c-0.0913,0.23459 -0.18276,0.46912 -0.27439,0.70357c-0.04021,0.10573 -0.08042,0.21146 -0.12185,0.32039c-0.16497,0.41609 -0.35295,0.81996 -0.54246,1.2253c-0.23892,0.53757 -0.45756,1.08323 -0.67875,1.62829c-0.54626,1.3456 -0.54626,1.3456 -0.81595,1.92795c-0.26657,0.57725 -0.52604,1.15725 -0.77984,1.74021c-0.06279,0.13955 -0.06279,0.13955 -0.12684,0.28192c-0.27057,0.62798 -0.44545,1.15317 -0.22052,1.83337c0.11246,0.2788 0.23541,0.5508 0.3618,0.82356c0.5096,1.1403 0.97116,2.29524 1.42015,3.46064c0.27521,0.70994 0.56708,1.40574 0.88689,2.09665c0.24561,0.54633 0.45954,1.10479 0.67514,1.66349c0.04408,0.11326 0.08817,0.22652 0.13358,0.34321c0.08617,0.22181 0.1718,0.44384 0.25685,0.66609c0.06726,0.17405 0.13592,0.34759 0.20794,0.51973c0.335,0.82062 0.50338,1.69662 0.70137,2.55793c0.04099,0.17617 0.08201,0.35234 0.12306,0.5285c0.25832,1.11224 0.50868,2.22616 0.74225,3.3439c0.10324,0.48902 0.21763,0.9711 0.3523,1.45248c0.22809,0.82007 0.40988,1.65022 0.59481,2.48079c0.0354,0.15796 0.07083,0.31592 0.10628,0.47386c0.06759,0.30121 0.13476,0.60251 0.2017,0.90387c0.05362,0.23971 0.10806,0.47925 0.1641,0.71841c0.23127,0.9921 0.33899,2.00462 -0.19048,2.91508c-0.74066,0.90884 -1.59385,1.72649 -2.42302,2.5539c-0.13101,0.13109 -0.262,0.26219 -0.39298,0.39332c-0.27255,0.27272 -0.54531,0.54524 -0.81822,0.8176c-0.3475,0.34684 -0.69448,0.6942 -1.0413,1.04172c-0.26969,0.27011 -0.53967,0.53995 -0.80972,0.8097c-0.12798,0.12791 -0.25588,0.2559 -0.38369,0.38398c-0.60772,0.60873 -1.21799,1.20532 -1.87174,1.76512c-0.496,0.44306 -0.95326,0.927 -1.41798,1.40234c-0.17007,0.17262 -0.34034,0.34503 -0.51062,0.51744c-0.41556,0.4208 -0.83064,0.84204 -1.2438,1.26519c-0.28969,0.29661 -0.58082,0.59174 -0.87291,0.88599c-0.16266,0.16465 -0.32379,0.33082 -0.48486,0.49703c-0.81796,0.82133 -1.67812,1.46378 -2.8643,1.55818c-0.63103,-0.01074 -1.23454,-0.19672 -1.84181,-0.3539c-0.13614,-0.03437 -0.27229,-0.06875 -0.41255,-0.10417c-0.37026,-0.09364 -0.74029,-0.18809 -1.11022,-0.28299c-0.62642,-0.16051 -1.25324,-0.31945 -1.88004,-0.47845c-0.16057,-0.04075 -0.32114,-0.08154 -0.48169,-0.12237c-1.12206,-0.28521 -2.24632,-0.55797 -3.37418,-0.81948c-2.55597,-0.59566 -4.99242,-1.18133 -7.356,-2.3454c-0.4199,-0.20213 -0.8497,-0.37249 -1.28457,-0.5393c-0.4492,-0.17662 -0.89109,-0.35949 -1.32862,-0.56322c-0.75342,-0.35009 -1.52502,-0.65553 -2.29485,-0.96727c-0.66229,-0.26917 -1.31543,-0.5472 -1.95864,-0.85958c-0.64043,-0.26419 -1.04066,-0.17954 -1.66845,0.08033c-0.08079,0.03213 -0.16159,0.06426 -0.24483,0.09736c-0.25805,0.10306 -0.5152,0.20818 -0.7724,0.31332c-0.17024,0.06813 -0.34053,0.13612 -0.51087,0.20399c-0.68694,0.27518 -1.36978,0.5532 -2.03852,0.87056c-0.60633,0.28176 -1.22978,0.50636 -1.85755,0.73471c-0.33141,0.12274 -0.66265,0.24591 -0.99384,0.36925c-0.22694,0.08345 -0.45449,0.16528 -0.68259,0.24551c-1.54114,0.48223 -1.54114,0.48223 -2.58608,1.62233c-0.1271,0.34759 -0.1271,0.34759 -0.21211,0.67605c-0.05734,0.13835 -0.11468,0.27671 -0.17375,0.41926c-0.04036,0.11185 -0.08072,0.22369 -0.1223,0.33893c-0.1745,0.46887 -0.35916,0.92568 -0.57044,1.37917c-0.21213,0.45609 -0.40007,0.91576 -0.57766,1.38639c-0.21815,0.57811 -0.4616,1.13687 -0.72208,1.69688c-0.15752,0.35442 -0.29632,0.71304 -0.43325,1.0759c-0.26118,0.68864 -0.54912,1.35731 -0.86649,2.02182c-0.06195,0.13001 -0.12391,0.26003 -0.18774,0.39398c-0.35707,0.73247 -0.73615,1.43377 -1.18376,2.11569c-0.32878,0.50613 -0.64425,1.02013 -0.96082,1.53396c-0.49073,0.7952 -0.98619,1.58706 -1.48748,2.37564c-0.46658,0.73466 -0.91971,1.4761 -1.36473,2.224c-0.51044,0.85403 -1.02611,1.70461 -1.55247,2.54894c-0.09748,0.15968 -0.09748,0.15968 -0.19694,0.32259c-0.58772,0.93452 -1.25745,1.61423 -2.30868,2.0025c-0.37215,0.06017 -0.73517,0.0599 -1.11152,0.0543c-0.1612,0.00038 -0.1612,0.00038 -0.32565,0.00077c-0.35483,0.00027 -0.70956,-0.00277 -1.06438,-0.00587c-0.25154,-0.00057 -0.50308,-0.00095 -0.75462,-0.00115c-0.66467,-0.00111 -1.3293,-0.00508 -1.99396,-0.00957c-0.52803,-0.00309 -1.05606,-0.00413 -1.5841,-0.00505c-2.99065,-0.00537 -5.97918,-0.04414 -8.96862,-0.12939c-0.86494,-0.02443 -1.73001,-0.04202 -2.59524,-0.05216c-0.79999,-0.01608 -1.42175,-0.29873 -2.01409,-0.8368c-0.49611,-0.5445 -0.84987,-1.18771 -1.21408,-1.82395c-0.13255,-0.22798 -0.26523,-0.45589 -0.39805,-0.68372c-0.06557,-0.11279 -0.13113,-0.22559 -0.19868,-0.3418c-0.2716,-0.46343 -0.55139,-0.92159 -0.83298,-1.379c-0.44208,-0.71971 -0.88002,-1.44172 -1.31418,-2.16623c-0.08622,-0.14384 -0.08622,-0.14384 -0.17417,-0.29058c-0.29419,-0.4911 -0.58793,-0.98247 -0.88141,-1.474c-0.05831,-0.09748 -0.11663,-0.19497 -0.17671,-0.2954c-0.11721,-0.19606 -0.23415,-0.39228 -0.35083,-0.58866c-0.25689,-0.43037 -0.51599,-0.85611 -0.79883,-1.26998c-0.93358,-1.37668 -1.51187,-2.89609 -2.11852,-4.43612c-0.29385,-0.74501 -0.58954,-1.4893 -0.88478,-2.23376c-0.30308,-0.76426 -0.60603,-1.52856 -0.9072,-2.29358c-0.08689,-0.22065 -0.1739,-0.44124 -0.26096,-0.66182c-0.10804,-0.27383 -0.21583,-0.54775 -0.32335,-0.82178c-0.32769,-1.03092 -0.32769,-1.03092 -0.95506,-1.85155c-0.07238,-0.02657 -0.14476,-0.05315 -0.21933,-0.08053c-0.08176,-0.03165 -0.16352,-0.06329 -0.24776,-0.0959c-0.12756,-0.04524 -0.12756,-0.04524 -0.25769,-0.09139c-0.16619,-0.06243 -0.33227,-0.12517 -0.49823,-0.18819c-0.13103,-0.0492 -0.13103,-0.0492 -0.26471,-0.0994c-0.40621,-0.16075 -0.80031,-0.3459 -1.19699,-0.52867c-0.67134,-0.30349 -1.353,-0.58315 -2.03316,-0.86618c-0.31671,-0.13182 -0.63338,-0.26372 -0.94998,-0.39579c-0.07929,-0.03307 -0.15857,-0.06613 -0.24026,-0.1002c-0.5295,-0.22149 -1.05634,-0.44851 -1.58208,-0.67874c-0.13552,-0.05888 -0.27103,-0.11777 -0.41065,-0.17843c-0.25469,-0.11093 -0.5089,-0.22298 -0.76253,-0.33633c-0.70067,-0.30358 -1.2617,-0.54656 -2.02162,-0.28909c-0.29729,0.11893 -0.58734,0.24884 -0.87817,0.38279c-0.21574,0.09613 -0.43161,0.19195 -0.64761,0.28748c-0.10788,0.0479 -0.21576,0.0958 -0.32691,0.14515c-0.54961,0.23819 -1.10879,0.4506 -1.66955,0.6609c-0.4491,0.17035 -0.88643,0.35596 -1.32239,0.55778c-0.75506,0.34721 -1.52656,0.64775 -2.30117,0.94818c-0.27816,0.10843 -0.55631,0.21689 -0.83445,0.32539c-0.13311,0.05159 -0.26623,0.10319 -0.40338,0.15635c-0.22717,0.08935 -0.45363,0.18059 -0.6787,0.27512c-0.75515,0.31715 -1.51942,0.52413 -2.31485,0.71618c-0.13993,0.0344 -0.27986,0.06881 -0.42402,0.10425c-1.18989,0.29003 -2.38414,0.56022 -3.57953,0.82664c-1.02951,0.22971 -2.05531,0.4725 -3.08003,0.72267c-1.02412,0.24839 -2.04832,0.49623 -3.07605,0.7293c-0.10321,0.02444 -0.20642,0.04889 -0.31275,0.07407c-1.02388,0.22751 -2.14117,0.36429 -3.08102,-0.18238c-0.90884,-0.74066 -1.72649,-1.59385 -2.5539,-2.42302c-0.13109,-0.13101 -0.26219,-0.262 -0.39332,-0.39298c-0.27272,-0.27255 -0.54524,-0.54531 -0.8176,-0.81822c-0.34684,-0.3475 -0.6942,-0.69448 -1.04172,-1.0413c-0.27011,-0.26969 -0.53995,-0.53967 -0.8097,-0.80972c-0.12791,-0.12798 -0.2559,-0.25588 -0.38398,-0.38369c-0.60873,-0.60772 -1.20532,-1.21799 -1.76512,-1.87174c-0.44306,-0.496 -0.927,-0.95326 -1.40234,-1.41798c-0.17262,-0.17007 -0.34503,-0.34034 -0.51744,-0.51062c-0.4208,-0.41556 -0.84204,-0.83064 -1.26519,-1.2438c-0.29661,-0.28969 -0.59174,-0.58082 -0.88599,-0.87291c-0.16465,-0.16266 -0.33082,-0.32379 -0.49703,-0.48486c-0.78137,-0.77816 -1.46702,-1.6455 -1.5626,-2.78312c0.01096,-0.66601 0.19576,-1.29416 0.36424,-1.93494c0.11812,-0.44943 0.23246,-0.89983 0.34745,-1.35006c0.02666,-0.10397 0.05332,-0.20793 0.08078,-0.31505c0.26335,-1.03059 0.51668,-2.06356 0.76946,-3.09677c0.04362,-0.17809 0.08723,-0.35619 0.13086,-0.53428c0.17624,-0.71967 0.35243,-1.43935 0.52795,-2.1592c0.10524,-0.43153 0.21092,-0.86295 0.31688,-1.2943c0.03927,-0.16022 0.07839,-0.32047 0.11733,-0.48077c0.36856,-1.51664 0.80049,-2.97492 1.41349,-4.41121c0.07227,-0.17224 0.07227,-0.17224 0.146,-0.34795c0.23584,-0.55915 0.47855,-1.11425 0.73178,-1.66574c0.28673,-0.62618 0.5476,-1.26114 0.80467,-1.89997c0.54054,-1.33314 0.54054,-1.33314 0.82317,-1.94239c0.042,-0.09234 0.084,-0.18467 0.12727,-0.27981c0.08359,-0.18153 0.16798,-0.36271 0.25487,-0.54269c0.12162,-0.25387 0.23814,-0.50971 0.35438,-0.76608c0.03926,-0.07913 0.07852,-0.15826 0.11897,-0.23978c0.25723,-0.58191 0.23351,-0.94787 0.01991,-1.54152c-0.04583,-0.11511 -0.09167,-0.23023 -0.13889,-0.34883c-0.05753,-0.15001 -0.11495,-0.30006 -0.17228,-0.45014c-0.16719,-0.4332 -0.33933,-0.86427 -0.51318,-1.29483c-0.10834,-0.26842 -0.21582,-0.53718 -0.32319,-0.80599c-0.28752,-0.71713 -0.57499,-1.43197 -0.90215,-2.13216c-0.24037,-0.51762 -0.44716,-1.04382 -0.64897,-1.57729c-0.03153,-0.08283 -0.06305,-0.16566 -0.09554,-0.25099c-0.13048,-0.34308 -0.26081,-0.68617 -0.3882,-1.03041c-0.09454,-0.25473 -0.19149,-0.50843 -0.28889,-0.76207c-0.04209,-0.11643 -0.04209,-0.11643 -0.08503,-0.23521c-0.19321,-0.49536 -0.37363,-0.71447 -0.85728,-0.93456c-0.27351,-0.1156 -0.54611,-0.22604 -0.82317,-0.33216c-0.5269,-0.20583 -1.04673,-0.41796 -1.55969,-0.65709c-0.57568,-0.26734 -1.16329,-0.49168 -1.75691,-0.71576c-0.32832,-0.12874 -0.64611,-0.26832 -0.96533,-0.4179c-0.56152,-0.26144 -1.13324,-0.4862 -1.71133,-0.70764c-0.78382,-0.30129 -1.55396,-0.6168 -2.31065,-0.98203c-0.19391,-0.09248 -0.19391,-0.09248 -0.39173,-0.18684c-1.00005,-0.48368 -1.9258,-1.04593 -2.84679,-1.66665c-0.11795,-0.07938 -0.2359,-0.15876 -0.35743,-0.24054c-0.10514,-0.07178 -0.21029,-0.14357 -0.31862,-0.21753c-0.2828,-0.18074 -0.56402,-0.34538 -0.85792,-0.50636c-0.53926,-0.29585 -1.05689,-0.61952 -1.57458,-0.95134c-0.72539,-0.46154 -1.45342,-0.91779 -2.1879,-1.36473c-0.12516,-0.07636 -0.12516,-0.07636 -0.25284,-0.15426c-0.37153,-0.22665 -0.74318,-0.45309 -1.11533,-0.67873c-0.32661,-0.19823 -0.65263,-0.39742 -0.97859,-0.59673c-0.15132,-0.09135 -0.15132,-0.09135 -0.3057,-0.18455c-1.06706,-0.65459 -1.90557,-1.26567 -2.32989,-2.49436c-0.12664,-0.82465 -0.08622,-1.66911 -0.07582,-2.50065c0.00061,-0.24829 0.00093,-0.49658 0.00098,-0.74487c0.00109,-0.66162 0.00662,-1.32314 0.01328,-1.98473c0.00506,-0.54598 0.0078,-1.09197 0.01058,-1.63797c0.00898,-1.71583 0.02798,-3.43146 0.05097,-5.14716c0.00278,-0.21646 0.00556,-0.43292 0.00834,-0.64938c0.01396,-1.05664 0.03212,-2.11306 0.05958,-3.16944c0.00761,-0.29671 0.01449,-0.59345 0.02059,-0.89019c0.00893,-0.40281 0.02157,-0.80531 0.0356,-1.20797c0.00208,-0.11317 0.00415,-0.22634 0.0063,-0.34293c0.04089,-0.93789 0.35429,-1.66936 1.04884,-2.31251c0.48777,-0.38253 1.02015,-0.6882 1.55743,-0.99511c0.22652,-0.13158 0.45291,-0.26337 0.6792,-0.39534c0.18008,-0.10488 0.18008,-0.10488 0.3638,-0.21188c0.67486,-0.39687 1.34288,-0.80496 2.01138,-1.21241c0.27586,-0.16794 0.55177,-0.3358 0.82768,-0.50365c0.09996,-0.06082 0.09996,-0.06082 0.20193,-0.12287c0.86592,-0.5266 1.73538,-1.04726 2.60504,-1.56764c0.50242,-0.30078 1.00446,-0.60222 1.50655,-0.90356c0.54373,-0.32625 0.54373,-0.32625 0.81426,-0.48729c0.18165,-0.10984 0.36179,-0.22223 0.54043,-0.33689c0.5005,-0.31611 0.99101,-0.57326 1.54609,-0.78072c0.13246,-0.04997 0.26492,-0.09995 0.40139,-0.15144c0.10651,-0.0399 0.10651,-0.0399 0.21517,-0.0806c0.39393,-0.14799 0.78681,-0.29871 1.17978,-0.4492c0.08466,-0.03237 0.16932,-0.06474 0.25654,-0.0981c0.75772,-0.29009 1.51385,-0.5842 2.26943,-0.8798c0.50556,-0.19764 1.01162,-0.3937 1.51907,-0.58642c0.49531,-0.18817 0.98894,-0.38024 1.48167,-0.57507c0.18665,-0.07302 0.37384,-0.14465 0.56159,-0.2148c1.195,-0.41145 1.195,-0.41145 2.00487,-1.325c0.06937,-0.19044 0.13409,-0.38268 0.19268,-0.5767c0.06239,-0.14491 0.12638,-0.28915 0.19245,-0.43243c0.05549,-0.13297 0.11097,-0.26593 0.16814,-0.40293c0.03088,-0.07375 0.06175,-0.1475 0.09356,-0.22349c0.06453,-0.15436 0.12888,-0.30879 0.19304,-0.46331c0.09563,-0.23029 0.19182,-0.46034 0.28813,-0.69035c0.37841,-0.90578 0.74698,-1.81506 1.10802,-2.7279c0.13434,-0.33113 0.27624,-0.65634 0.42617,-0.98064c0.27304,-0.59441 0.54037,-1.19103 0.80151,-1.79075c0.06275,-0.13945 0.06275,-0.13945 0.12676,-0.28172c0.27294,-0.63349 0.44527,-1.15763 0.21688,-1.84288c-0.11603,-0.28773 -0.24242,-0.56872 -0.37252,-0.85036c-0.09591,-0.21495 -0.19143,-0.43007 -0.28657,-0.64536c-0.04935,-0.11151 -0.0987,-0.22302 -0.14955,-0.33791c-0.29363,-0.68168 -0.55622,-1.37571 -0.82072,-2.06909c-0.20104,-0.5228 -0.41141,-1.03664 -0.64674,-1.54502c-0.34778,-0.75388 -0.64794,-1.52485 -0.94863,-2.29847c-0.08266,-0.21122 -0.08266,-0.21122 -0.16698,-0.4267c-0.10634,-0.27221 -0.21214,-0.54464 -0.31732,-0.8173c-0.07694,-0.19801 -0.15498,-0.39562 -0.23682,-0.59165c-0.33347,-0.81609 -0.49768,-1.69056 -0.69415,-2.54736c-0.04131,-0.178 -0.08267,-0.35599 -0.12408,-0.53397c-0.2423,-1.04346 -0.47999,-2.08797 -0.71483,-3.13314c-0.16415,-0.72637 -0.33787,-1.45019 -0.51403,-2.17374c-0.28973,-1.19009 -0.57847,-2.38052 -0.8494,-3.57505c-0.02442,-0.10312 -0.04885,-0.20625 -0.07401,-0.3125c-0.22746,-1.02369 -0.36468,-2.14167 0.18232,-3.08127c0.71948,-0.88072 1.5429,-1.6756 2.34721,-2.47808c0.12324,-0.12332 0.24646,-0.24665 0.36967,-0.37c0.25624,-0.2564 0.51268,-0.5126 0.76927,-0.76865c0.32652,-0.32586 0.65252,-0.65224 0.97836,-0.97877c0.25364,-0.25406 0.50755,-0.50784 0.76155,-0.76154c0.12024,-0.12017 0.24041,-0.24042 0.36048,-0.36076c1.04687,-1.04872 1.04687,-1.04872 1.57832,-1.50328c0.54685,-0.46903 1.04628,-0.98441 1.54972,-1.49892c0.23899,-0.24393 0.47912,-0.48671 0.71918,-0.72959c0.44471,-0.44995 0.88894,-0.90034 1.33125,-1.35264c0.30992,-0.31683 0.62128,-0.63219 0.93359,-0.94667c0.1176,-0.11895 0.23469,-0.23842 0.3512,-0.35843c0.84818,-0.87308 1.77239,-1.71693 3.04887,-1.77642c0.49498,0.00677 0.9447,0.09915 1.42249,0.22204c0.07402,0.01817 0.14804,0.03634 0.2243,0.05506c0.163,0.04021 0.32585,0.08098 0.48859,0.12222c0.31407,0.07942 0.62834,0.15806 0.94266,0.23649c1.01576,0.25347 2.03084,0.50954 3.04564,0.76682c0.08154,0.02067 0.16308,0.04134 0.24709,0.06263c0.4305,0.10912 0.86099,0.21827 1.29147,0.32746c0.43828,0.11116 0.87659,0.22219 1.31491,0.33319c0.3433,0.08696 0.68657,0.17402 1.02983,0.2611c0.1614,0.04093 0.32281,0.08182 0.48423,0.12268c0.83094,0.21035 1.66134,0.42283 2.49037,0.64059c0.13558,0.03549 0.27115,0.07097 0.41084,0.10754c0.95983,0.27536 1.86736,0.67222 2.77085,1.09269c0.54983,0.24437 1.1073,0.46889 1.66484,0.695c0.74832,0.30366 1.49078,0.61227 2.22265,0.95405c0.51342,0.23093 1.03577,0.44001 1.55723,0.65201c0.58564,0.23918 1.16113,0.49445 1.73138,0.76867c0.52477,0.21598 0.86669,0.2587 1.3975,0.04552c0.10688,-0.04209 0.21376,-0.08418 0.32388,-0.12755c0.11433,-0.0468 0.22867,-0.0936 0.34647,-0.14182c0.11926,-0.04752 0.23852,-0.09503 0.36139,-0.14399c0.38165,-0.1525 0.76243,-0.30708 1.14324,-0.46165c0.25373,-0.10152 0.50751,-0.20291 0.76134,-0.30418c1.02784,-0.41186 2.05022,-0.82709 3.05566,-1.29155c0.32605,-0.14834 0.65645,-0.27928 0.99204,-0.40444c0.12421,-0.04751 0.24841,-0.09502 0.37638,-0.14396c0.21082,-0.07947 0.42174,-0.15873 0.63351,-0.23563c0.23686,-0.08603 0.47275,-0.17443 0.70865,-0.26305c0.07391,-0.02598 0.14781,-0.05196 0.22396,-0.07872c0.50048,-0.1908 0.69829,-0.36012 0.91693,-0.84554c0.15614,-0.36812 0.30316,-0.73918 0.44769,-1.112c0.28868,-0.73438 0.58749,-1.4581 0.922,-2.173c0.20319,-0.45563 0.37501,-0.92246 0.54743,-1.39045c0.13278,-0.33342 0.27471,-0.65603 0.42512,-0.98158c0.23214,-0.50537 0.44786,-1.01581 0.65529,-1.53171c0.65453,-1.62123 1.31729,-3.16302 2.29581,-4.6213c0.19897,-0.29891 0.38398,-0.60585 0.56993,-0.91298c0.51201,-0.83136 1.03081,-1.65847 1.54869,-2.48618c0.48205,-0.77077 0.96238,-1.54256 1.44072,-2.31564c0.06043,-0.09749 0.12086,-0.19498 0.18311,-0.29543c0.32087,-0.51812 0.63977,-1.03734 0.95642,-1.55805c0.0667,-0.10914 0.1334,-0.21827 0.20213,-0.33072c0.12669,-0.20737 0.25284,-0.41507 0.3783,-0.62319c1.27733,-2.08559 2.57557,-2.41798 4.93806,-2.3839zM233.18367,94.0525c-0.1144,0.16765 -0.22398,0.33864 -0.3299,0.51177c-0.06186,0.10057 -0.12372,0.20115 -0.18746,0.30477c-0.06517,0.10703 -0.13035,0.21407 -0.1975,0.32434c-0.10178,0.1658 -0.10178,0.1658 -0.20562,0.33495c-0.19424,0.31653 -0.38791,0.63339 -0.58144,0.95035c-0.14901,0.24323 -0.29832,0.48628 -0.44769,0.7293c-0.07044,0.11468 -0.14089,0.22935 -0.21346,0.3475c-0.29128,0.47202 -0.58605,0.94186 -0.8804,1.41197c-0.6128,0.97879 -1.22536,1.95773 -1.83055,2.94126c-0.07502,0.12101 -0.07502,0.12101 -0.15155,0.24446c-0.66847,1.09079 -1.13695,2.24703 -1.61032,3.43091c-0.38751,0.96795 -0.77771,1.9304 -1.21583,2.87689c-0.15137,0.33316 -0.28237,0.6718 -0.40885,1.01511c-0.22357,0.5943 -0.47364,1.16826 -0.74916,1.74021c-0.1195,0.28679 -0.17625,0.55474 -0.23287,0.85927c0.06813,-0.01447 0.13627,-0.02895 0.20647,-0.04386c5.21042,-1.09711 10.45875,-1.74015 15.78756,-1.72523c0.15854,0.00022 0.31709,0.00044 0.47563,0.00064c2.33888,0.00435 4.65651,0.05934 6.97925,0.35243c0.2485,0.0313 0.49713,0.06147 0.74579,0.09157c2.62764,0.32145 5.2409,0.74687 7.8209,1.34476c0.44788,0.1112 0.44788,0.1112 0.91117,0.09522c-0.0796,-0.48773 -0.2376,-0.9304 -0.41787,-1.38811c-0.03084,-0.07938 -0.06168,-0.15875 -0.09345,-0.24053c-0.10202,-0.26201 -0.20482,-0.52371 -0.30778,-0.78536c-0.03542,-0.09021 -0.07083,-0.18042 -0.10732,-0.27336c-0.18803,-0.47879 -0.37668,-0.95732 -0.56582,-1.43568c-0.19305,-0.48861 -0.38393,-0.97803 -0.57429,-1.46768c-0.14855,-0.38085 -0.29876,-0.76103 -0.4494,-1.14105c-0.07093,-0.17977 -0.14127,-0.35978 -0.21093,-0.54005c-0.47357,-1.22328 -1.04912,-2.31011 -1.7737,-3.40377c-0.24543,-0.37497 -0.46712,-0.76409 -0.69117,-1.15204c-0.44514,-0.76337 -0.90131,-1.51924 -1.36414,-2.27201c-0.28713,-0.46759 -0.57144,-0.93662 -0.85174,-1.40833c-0.06041,-0.10152 -0.12082,-0.20305 -0.18306,-0.30764c-0.11497,-0.19355 -0.22959,-0.38731 -0.34378,-0.58133c-0.10461,-0.17594 -0.21115,-0.35076 -0.31998,-0.52412c-0.11886,-0.19426 -0.23138,-0.39257 -0.33693,-0.59438c-0.26101,-0.45083 -0.45968,-0.79044 -0.9685,-0.95984c-0.39519,-0.03974 -0.77584,-0.04227 -1.17293,-0.03247c-0.22179,-0.00143 -0.22179,-0.00143 -0.44806,-0.00288c-0.40194,-0.00248 -0.80351,0.00207 -1.2054,0.008c-0.41908,0.00504 -0.83814,0.00378 -1.25725,0.00312c-0.69149,-0.00038 -1.38287,0.00299 -2.07434,0.00857c-0.91632,0.00705 -1.83224,0.00209 -2.74852,-0.00726c-0.53073,-0.00524 -1.06148,-0.00885 -1.59222,-0.01264c-0.2889,-0.00215 -0.57781,-0.00461 -0.86671,-0.0074c-0.40065,-0.00338 -0.80124,-0.00445 -1.2019,-0.00484c-0.11843,-0.00142 -0.23685,-0.00283 -0.35887,-0.00429c-0.10785,0.00034 -0.2157,0.00067 -0.32682,0.00102c-0.09357,-0.00042 -0.18714,-0.00084 -0.28354,-0.00128c-0.30183,0.05314 -0.39721,0.15431 -0.58775,0.38905zM183.6873,114.24228c-0.05834,0.05842 -0.11668,0.11685 -0.17679,0.17704c-0.19226,0.19333 -0.38195,0.38898 -0.57175,0.58472c-0.13392,0.13551 -0.268,0.27085 -0.40224,0.40604c-0.35331,0.35661 -0.70454,0.7152 -1.05532,1.07429c-0.42398,0.43337 -0.85012,0.86461 -1.27618,1.29593c-0.33213,0.33624 -0.66386,0.67284 -0.99431,1.01073c-0.56369,0.57504 -1.12971,1.139 -1.74323,1.66165c-0.52499,0.44876 -1.01733,0.93458 -1.51164,1.41654c-0.13356,0.12929 -0.26815,0.25752 -0.40369,0.38473c-0.19804,0.1861 -0.39247,0.3754 -0.58649,0.56567c-0.06088,0.05587 -0.12175,0.11174 -0.18447,0.16931c-0.19489,0.18507 -0.19489,0.18507 -0.40357,0.52434c0.00692,0.34963 0.0335,0.59406 0.11553,0.92426c0.0293,0.14031 0.0586,0.28062 0.08879,0.42518c0.05166,0.21532 0.05166,0.21532 0.10436,0.435c0.01878,0.07896 0.03755,0.15791 0.0569,0.23926c0.06063,0.25461 0.12191,0.50906 0.18319,0.76352c0.08489,0.35573 0.16947,0.71153 0.25408,1.06732c0.0208,0.08723 0.0416,0.17446 0.06302,0.26433c0.13843,0.58127 0.27321,1.16324 0.40396,1.74629c0.06688,0.29807 0.1352,0.59578 0.20365,0.89349c0.10683,0.46599 0.20702,0.93311 0.30598,1.40083c0.53468,2.44584 1.37959,4.75227 2.43566,7.0204c0.24291,0.52644 0.45582,1.06108 0.66341,1.60211c0.03207,0.08335 0.06413,0.16671 0.09717,0.25259c0.13276,0.34574 0.26519,0.69159 0.39587,1.03812c0.09684,0.2562 0.19529,0.51173 0.29402,0.76721c0.02925,0.07881 0.0585,0.15762 0.08864,0.23883c0.07467,0.19138 0.16304,0.3773 0.25344,0.56178c0.11438,0.03813 0.22875,0.07625 0.3466,0.11553c0.07432,-0.12599 0.14863,-0.25199 0.2252,-0.3818c0.73498,-1.23186 1.5287,-2.40142 2.38246,-3.5537c0.21692,-0.29384 0.42908,-0.59102 0.64169,-0.88799c2.16104,-2.96631 4.61182,-5.69936 7.19912,-8.29668c0.0957,-0.09624 0.19139,-0.19247 0.28999,-0.29162c0.56118,-0.55971 1.13814,-1.09096 1.73905,-1.60744c0.18574,-0.16804 0.37114,-0.33645 0.556,-0.50545c0.49274,-0.44414 0.99775,-0.86884 1.51366,-1.28575c0.25825,-0.20889 0.51502,-0.41906 0.77082,-0.63092c2.53473,-2.09237 5.25715,-3.89112 8.01958,-5.66515c-0.1746,-0.3492 -0.43261,-0.3676 -0.79429,-0.49823c-0.47293,-0.17601 -0.93691,-0.35583 -1.39361,-0.57044c-0.64815,-0.30164 -1.30896,-0.56901 -1.97127,-0.83761c-1.34493,-0.54595 -1.34493,-0.54595 -1.92795,-0.81595c-0.08891,-0.04061 -0.17782,-0.08122 -0.26943,-0.12306c-0.24942,-0.11484 -0.49736,-0.23292 -0.74433,-0.35294c-1.75984,-0.82076 -3.63308,-1.22602 -5.5133,-1.67012c-0.445,-0.10545 -0.88955,-0.21275 -1.33412,-0.32c-0.51422,-0.12404 -1.02845,-0.24797 -1.54299,-0.37065c-0.9823,-0.23465 -1.9619,-0.47704 -2.9332,-0.75434c-0.87537,-0.24241 -1.30084,-0.27593 -1.95769,0.39279zM295.27968,114.53469c-0.12561,0.03232 -0.25122,0.06464 -0.38064,0.09793c-0.13561,0.03545 -0.27122,0.07089 -0.41094,0.10741c-0.29341,0.07511 -0.58687,0.14998 -0.88048,0.2243c-0.07587,0.01921 -0.15174,0.03843 -0.2299,0.05822c-0.82281,0.20691 -1.65025,0.39228 -2.47834,0.57676c-0.15112,0.03408 -0.30223,0.06822 -0.45333,0.10242c-0.7264,0.16425 -1.45327,0.32522 -2.1818,0.47976c-2.41981,0.52943 -4.7029,1.37683 -6.9482,2.41851c-0.86246,0.39754 -1.74984,0.73404 -2.63423,1.07906c-0.1779,0.06969 -0.35579,0.13942 -0.53366,0.20918c-0.43093,0.16892 -0.86201,0.33742 -1.2932,0.50568c0,0.11438 0,0.22875 0,0.3466c0.2303,0.20072 0.2303,0.20072 0.5375,0.38947c0.11506,0.07517 0.23011,0.15034 0.34866,0.22779c0.12457,0.07986 0.24914,0.15973 0.37748,0.24201c0.25616,0.16754 0.5122,0.33528 0.76811,0.5032c0.12655,0.08271 0.2531,0.16542 0.38349,0.25064c1.34393,0.88485 2.62332,1.83854 3.86853,2.85678c0.25476,0.20733 0.51298,0.4102 0.77093,0.61354c1.14979,0.92021 2.25598,1.89547 3.34322,2.88831c0.10678,0.09606 0.21356,0.19212 0.32358,0.29109c0.81463,0.73743 1.59887,1.50374 2.37699,2.27951c0.09753,0.097 0.19506,0.194 0.29554,0.29394c0.56567,0.56707 1.10488,1.14803 1.62518,1.75677c0.11808,0.13493 0.23631,0.26972 0.35472,0.40436c2.41911,2.76661 4.58057,5.6718 6.57227,8.75836c0.34296,0.53083 0.69274,1.05695 1.04476,1.5818c0.31469,-0.40036 0.49976,-0.80465 0.67875,-1.27808c0.19709,-0.50725 0.39695,-1.00901 0.62821,-1.50192c0.29895,-0.64338 0.56376,-1.29961 0.83039,-1.95683c0.39222,-0.96615 0.79799,-1.92199 1.25193,-2.86107c0.57535,-1.25074 0.88355,-2.54811 1.20313,-3.88314c0.05948,-0.24424 0.11909,-0.48845 0.17883,-0.73263c0.09131,-0.37346 0.18248,-0.74695 0.27309,-1.12058c0.20037,-0.82599 0.4064,-1.65035 0.61676,-2.47385c0.0542,-0.21295 0.10839,-0.42591 0.16258,-0.63887c0.07683,-0.30182 0.15386,-0.60358 0.23162,-0.90516c0.07093,-0.27551 0.14085,-0.55127 0.21055,-0.8271c0.02087,-0.0799 0.04174,-0.15981 0.06324,-0.24213c0.1148,-0.45886 0.1895,-0.86328 0.14075,-1.33471c-0.20717,-0.30652 -0.20717,-0.30652 -0.50684,-0.5837c-0.05392,-0.05383 -0.10783,-0.10766 -0.16338,-0.16313c-0.17833,-0.17726 -0.35897,-0.35194 -0.53971,-0.52674c-0.12515,-0.12356 -0.25013,-0.24728 -0.37496,-0.37115c-0.32926,-0.32596 -0.66049,-0.64984 -0.99224,-0.97327c-0.4001,-0.39071 -0.79808,-0.78357 -1.19612,-1.17637c-0.31036,-0.30626 -0.62108,-0.61211 -0.9331,-0.91667c-0.54883,-0.53711 -1.08187,-1.07904 -1.58066,-1.66327c-0.51772,-0.59768 -1.08724,-1.15081 -1.64355,-1.71224c-0.15365,-0.15558 -0.30667,-0.31178 -0.45908,-0.46856c-0.22186,-0.22817 -0.44554,-0.45439 -0.66973,-0.68028c-0.06777,-0.07039 -0.13554,-0.14077 -0.20536,-0.2133c-0.36782,-0.37517 -0.36782,-0.37517 -0.85203,-0.54018c-0.3101,0.05852 -0.61388,0.12154 -0.9193,0.20153zM238.65465,116.4702c-9.1271,0.15427 -18.16375,2.40909 -26.38237,6.34989c-0.09935,0.04745 -0.19871,0.0949 -0.30107,0.1438c-3.96067,1.9033 -7.71753,4.25831 -11.13665,7.01922c-0.09859,0.07759 -0.19718,0.15518 -0.29876,0.23513c-1.4957,1.17865 -2.97937,2.42381 -4.30178,3.79497c-0.22362,0.2172 -0.45308,0.41903 -0.68958,0.62189c-0.4727,0.41092 -0.90035,0.85178 -1.32411,1.31238c-0.11161,0.12034 -0.11161,0.12034 -0.22548,0.24311c-0.15139,0.16333 -0.3026,0.32684 -0.45361,0.49053c-0.19905,0.2153 -0.39919,0.42951 -0.59989,0.64327c-0.61293,0.65459 -1.20454,1.31869 -1.76593,2.01866c-0.20529,0.25586 -0.41239,0.50942 -0.62189,0.76179c-1.47041,1.7774 -2.79304,3.65417 -4.04499,5.59069c-0.05892,0.09087 -0.11784,0.18173 -0.17855,0.27535c-2.30726,3.58053 -4.17379,7.4267 -5.71361,11.39343c-0.04226,0.10846 -0.08452,0.21691 -0.12806,0.32866c-3.12445,8.09423 -4.37917,16.91681 -3.94446,25.56506c0.00492,0.09887 0.00984,0.19773 0.0149,0.29959c0.5293,10.33593 3.69338,20.68287 9.14105,29.49335c0.06028,0.09777 0.12056,0.19554 0.18266,0.29628c1.25482,2.02596 2.62098,3.95306 4.09204,5.82695c0.07521,0.09636 0.15042,0.19271 0.22791,0.29199c1.23677,1.56692 2.55298,3.09251 3.98,4.48952c0.18748,0.19166 0.35727,0.39207 0.52892,0.59797c0.60122,0.69693 1.29537,1.30378 1.97251,1.92518c0.20913,0.19254 0.41695,0.38638 0.62426,0.58088c0.6573,0.61536 1.32351,1.20992 2.02633,1.7736c0.25586,0.20529 0.50942,0.41239 0.76179,0.62189c9.33504,7.72272 21.08767,12.41304 43.13875,14.00967c0.09897,-0.00492 0.19794,-0.00984 0.2999,-0.0149c4.12265,-0.21087 8.1804,-0.82103 12.17761,-1.8625c0.11557,-0.03005 0.23114,-0.06009 0.35021,-0.09105c2.91488,-0.76722 5.78178,-1.70773 8.5458,-2.9128c0.09418,-0.04088 0.18836,-0.08176 0.28539,-0.12388c4.75162,-2.07392 9.23169,-4.56416 13.34745,-7.73233c0.12048,-0.091 0.24097,-0.18199 0.3651,-0.27574c0.83862,-0.63502 1.6476,-1.29891 2.44502,-1.98476c0.19857,-0.16984 0.3986,-0.33782 0.59899,-0.50551c0.74023,-0.62227 1.4462,-1.26236 2.12268,-1.95364c0.30405,-0.31024 0.61231,-0.60476 0.94525,-0.88367c0.45739,-0.38893 0.85457,-0.82848 1.25549,-1.27376c0.30621,-0.3398 0.61825,-0.66821 0.94685,-0.98634c0.44594,-0.43867 0.83245,-0.91639 1.22347,-1.40399c0.25217,-0.30735 0.51432,-0.60013 0.78391,-0.89222c0.51288,-0.56425 0.96581,-1.16199 1.41584,-1.77693c0.15136,-0.20448 0.30562,-0.40648 0.46066,-0.60818c0.9559,-1.24769 1.83386,-2.54112 2.68703,-3.86086c0.06331,-0.09785 0.12663,-0.19569 0.19186,-0.2965c2.2995,-3.57746 4.16666,-7.40971 5.7003,-11.37228c0.06314,-0.16218 0.06314,-0.16218 0.12755,-0.32764c3.12432,-8.09304 4.37736,-16.91189 3.94497,-25.55886c-0.00492,-0.09915 -0.00984,-0.19831 -0.0149,-0.30047c-0.40905,-8.0062 -2.41919,-15.87708 -5.79061,-23.14541c-0.04907,-0.1065 -0.09814,-0.21301 -0.1487,-0.32274c-1.68255,-3.63503 -3.68876,-7.09789 -6.09005,-10.30626c-0.09335,-0.1263 -0.18662,-0.25266 -0.27981,-0.37909c-0.25072,-0.33785 -0.50434,-0.67316 -0.75999,-1.0073c-0.04725,-0.06182 -0.0945,-0.12365 -0.14317,-0.18735c-0.83621,-1.09034 -1.71963,-2.13382 -2.62961,-3.1631c-0.09695,-0.11006 -0.19391,-0.22012 -0.2938,-0.33351c-0.4686,-0.52667 -0.95128,-1.03186 -1.45408,-1.52584c-0.20182,-0.20561 -0.38573,-0.41774 -0.56999,-0.63904c-0.47234,-0.55088 -1.00791,-1.03357 -1.54167,-1.52364c-0.36369,-0.33409 -0.72085,-0.67144 -1.06774,-1.02304c-0.31136,-0.31393 -0.63304,-0.60025 -0.97932,-0.87597c-0.40655,-0.32701 -0.8082,-0.65785 -1.20359,-0.9983c-5.23631,-4.49785 -11.44314,-7.97144 -17.88286,-10.4089c-0.28132,-0.10682 -0.56173,-0.2157 -0.84201,-0.32522c-7.30407,-2.81636 -15.31307,-3.94343 -23.10977,-3.83119zM171.02131,163.44627c-0.12378,0.04876 -0.12378,0.04876 -0.25007,0.0985c-0.27358,0.10799 -0.54679,0.2169 -0.81996,0.32591c-0.19072,0.07579 -0.38145,0.15156 -0.57219,0.22731c-0.4007,0.15935 -0.8012,0.3192 -1.20158,0.47934c-0.50976,0.20379 -1.02019,0.40584 -1.53082,0.60743c-0.39486,0.15622 -0.78924,0.31363 -1.1835,0.47136c-0.18774,0.07489 -0.37565,0.14937 -0.56374,0.2234c-1.07471,0.4236 -2.04432,0.87532 -2.99934,1.53612c-0.23092,0.14173 -0.46243,0.28251 -0.695,0.42151c-0.11733,0.07025 -0.23466,0.1405 -0.35554,0.21287c-0.12036,0.07183 -0.24072,0.14366 -0.36473,0.21767c-0.19071,0.11411 -0.19071,0.11411 -0.38527,0.23053c-0.25091,0.15013 -0.50186,0.3002 -0.75285,0.4502c-0.47864,0.28612 -0.95682,0.57297 -1.43471,0.86034c-0.40283,0.24207 -0.80656,0.48257 -1.21086,0.72219c-0.1016,0.06044 -0.20319,0.12087 -0.30787,0.18314c-0.19657,0.11693 -0.39334,0.23352 -0.59036,0.3497c-0.17978,0.10714 -0.35844,0.21619 -0.53568,0.32746c-0.19681,0.12078 -0.39738,0.23569 -0.60138,0.34389c-0.61456,0.35744 -0.61456,0.35744 -0.9586,0.95506c-0.03978,0.37935 -0.04233,0.74352 -0.03252,1.12484c-0.00095,0.14209 -0.0019,0.28417 -0.00288,0.43057c-0.0015,0.38711 0.00207,0.77353 0.008,1.16056c0.00504,0.40453 0.00378,0.80903 0.00312,1.21358c-0.00038,0.67327 0.00303,1.34643 0.00857,2.01968c0.00722,0.92214 0.0019,1.84389 -0.00726,2.766c-0.00527,0.54879 -0.00887,1.09759 -0.01264,1.64639c-0.00215,0.3008 -0.00461,0.6016 -0.0074,0.9024c-0.00338,0.41842 -0.00445,0.83678 -0.00484,1.25522c-0.00142,0.12422 -0.00283,0.24843 -0.00429,0.37641c0.00034,0.11321 0.00067,0.22643 0.00102,0.34307c-0.00042,0.09837 -0.00084,0.19674 -0.00128,0.29809c0.05227,0.30961 0.14765,0.40415 0.38905,0.59808c0.16765,0.1144 0.33864,0.22398 0.51177,0.3299c0.10057,0.06186 0.20115,0.12372 0.30477,0.18746c0.10703,0.06517 0.21407,0.13035 0.32434,0.1975c0.11053,0.06786 0.22107,0.13571 0.33495,0.20562c0.31653,0.19424 0.63339,0.38791 0.95035,0.58144c0.24323,0.14901 0.48628,0.29832 0.7293,0.44769c0.11468,0.07044 0.22935,0.14089 0.3475,0.21346c0.47202,0.29128 0.94186,0.58605 1.41197,0.8804c0.97879,0.6128 1.95773,1.22536 2.94126,1.83055c0.08067,0.05001 0.16135,0.10002 0.24446,0.15155c1.09079,0.66847 2.24703,1.13695 3.43091,1.61032c0.96795,0.38751 1.9304,0.77771 2.87689,1.21583c0.33316,0.15137 0.6718,0.28237 1.01511,0.40885c0.5943,0.22357 1.16826,0.47364 1.74021,0.74916c0.28679,0.1195 0.55474,0.17625 0.85927,0.23287c-0.01447,-0.06874 -0.02895,-0.13748 -0.04386,-0.2083c-1.0702,-5.12097 -1.7402,-10.24939 -1.72585,-15.48563c0.00063,-0.23922 0.0009,-0.47844 0.00114,-0.71766c0.00384,-2.47713 0.08063,-4.92788 0.38218,-7.38811c0.01731,-0.14576 0.03463,-0.29153 0.05246,-0.44171c0.31468,-2.59564 0.71647,-5.20132 1.36868,-7.73538c0.07203,-0.33199 0.09809,-0.61224 0.08078,-0.94998c-0.43286,0 -0.76587,0.14707 -1.16119,0.30533zM307.9332,163.94966c0.01387,0.0639 0.02774,0.1278 0.04203,0.19364c0.75411,3.51834 1.28176,7.08044 1.57543,10.66642c0.01009,0.12286 0.02018,0.24573 0.03057,0.37232c0.07255,0.94242 0.10488,1.87874 0.10843,2.82378c0.00121,0.21825 0.00121,0.21825 0.00244,0.44092c0.002,0.4677 0.00279,0.93539 0.00298,1.40309c0.00007,0.07976 0.00014,0.15952 0.00021,0.2417c0.00155,2.56746 -0.06435,5.1069 -0.37569,7.65783c-0.01731,0.14593 -0.03463,0.29186 -0.05246,0.44222c-0.3147,2.59546 -0.71652,5.20099 -1.36868,7.73487c-0.07203,0.33199 -0.09809,0.61224 -0.08078,0.94998c0.46726,-0.0805 0.89674,-0.21629 1.34307,-0.37548c0.19525,-0.06881 0.19525,-0.06881 0.39444,-0.139c0.35562,-0.13317 0.69788,-0.28755 1.04213,-0.44772c0.64394,-0.29408 1.29703,-0.55319 1.95855,-0.80464c0.2402,-0.0928 0.48037,-0.18569 0.7205,-0.27868c0.37096,-0.14332 0.74208,-0.28609 1.11389,-0.42718c1.54084,-0.58588 2.92293,-1.22361 4.28748,-2.14861c0.17789,-0.10882 0.35669,-0.21619 0.53705,-0.32087c0.0719,-0.04183 0.14381,-0.08366 0.21789,-0.12676c0.07017,-0.04053 0.14035,-0.08105 0.21265,-0.12281c0.76337,-0.44514 1.51924,-0.90131 2.27201,-1.36414c0.46759,-0.28713 0.93662,-0.57144 1.40833,-0.85174c0.10152,-0.06041 0.20305,-0.12082 0.30764,-0.18306c0.19355,-0.11497 0.38731,-0.22959 0.58133,-0.34378c0.17588,-0.10457 0.35068,-0.21096 0.52412,-0.31952c0.19477,-0.11948 0.39304,-0.23345 0.59438,-0.34151c0.60979,-0.35525 0.60979,-0.35525 0.95984,-0.94327c0.03971,-0.36348 0.0423,-0.71117 0.03247,-1.0767c0.00096,-0.13631 0.00191,-0.27262 0.0029,-0.41306c0.00151,-0.37208 -0.00206,-0.74368 -0.00799,-1.11571c-0.00509,-0.39006 -0.00394,-0.78011 -0.0034,-1.17019c0.00019,-0.57147 -0.00194,-1.14286 -0.00674,-1.71431c-0.00842,-1.01037 -0.00284,-2.02008 0.00922,-3.03039c0.00558,-0.48706 0.00958,-0.97413 0.01352,-1.4612c0.00318,-0.39077 0.00684,-0.78153 0.0117,-1.17228c0.00476,-0.43535 0.0065,-0.8706 0.00741,-1.30597c0.00201,-0.12941 0.00402,-0.25882 0.0061,-0.39215c-0.00033,-0.11857 -0.00066,-0.23713 -0.00099,-0.35929c0.00068,-0.10291 0.00136,-0.20583 0.00205,-0.31186c-0.07488,-0.36637 -0.23607,-0.50096 -0.51848,-0.73783c-0.19097,-0.12202 -0.38652,-0.237 -0.58488,-0.3466c-0.62574,-0.35572 -1.23451,-0.73212 -1.8413,-1.11922c-0.84968,-0.5409 -1.70855,-1.06344 -2.5746,-1.57763c-0.86101,-0.51389 -1.70553,-1.05228 -2.5453,-1.60014c-1.14333,-0.73845 -2.33315,-1.26519 -3.59558,-1.76847c-0.8634,-0.34536 -1.7185,-0.69919 -2.56295,-1.08876c-0.33691,-0.15243 -0.67884,-0.28535 -1.02577,-0.41316c-0.57559,-0.21661 -1.13112,-0.45704 -1.6838,-0.72659c-0.48612,-0.2012 -0.98797,-0.34183 -1.49335,-0.4865zM180.03872,215.93929c-0.02497,0.05984 -0.04995,0.11968 -0.07568,0.18134c-0.82363,1.97123 -0.82363,1.97123 -1.13019,2.62755c-0.29354,0.63385 -0.55326,1.28089 -0.81595,1.92795c-0.304,0.74877 -0.61202,1.49279 -0.95185,2.22616c-0.04808,0.10413 -0.09617,0.20826 -0.14571,0.31555c-0.07967,0.17131 -0.07967,0.17131 -0.16096,0.34608c-0.45215,1.00825 -0.75566,2.02113 -1.00926,3.09597c-0.04153,0.17119 -0.08319,0.34235 -0.12498,0.51347c-0.10869,0.44652 -0.21575,0.89342 -0.32238,1.34043c-0.12842,0.5371 -0.25871,1.07375 -0.38877,1.61045c-0.10428,0.43039 -0.20836,0.86083 -0.31179,1.29142c-0.23772,0.98762 -0.4823,1.97291 -0.76103,2.94992c-0.12737,0.46043 -0.21025,0.85369 -0.15574,1.32975c0.18395,0.24838 0.34991,0.43691 0.57047,0.64733c0.06068,0.06059 0.12136,0.12119 0.18387,0.18362c0.20083,0.19976 0.40398,0.39696 0.60723,0.59425c0.14069,0.1391 0.28121,0.27836 0.42158,0.41778c0.37028,0.36698 0.74255,0.73189 1.11532,1.09635c0.45,0.44062 0.89788,0.88339 1.34583,1.32609c0.34918,0.34507 0.69872,0.68973 1.04955,1.03312c0.58824,0.57705 1.16727,1.15519 1.70176,1.78334c0.41613,0.48887 0.86546,0.94801 1.31294,1.40804c0.11808,0.12236 0.23511,0.24574 0.35111,0.37007c0.17005,0.18199 0.34327,0.36034 0.5175,0.53831c0.10134,0.10605 0.20267,0.21209 0.30708,0.32135c0.38303,0.24638 0.58235,0.24375 1.02415,0.15712c0.07792,-0.01865 0.15585,-0.0373 0.23613,-0.05651c0.1397,-0.0293 0.27941,-0.0586 0.42335,-0.08879c0.21422,-0.05166 0.21422,-0.05166 0.43277,-0.10436c0.07874,-0.0188 0.15747,-0.0376 0.23859,-0.05696c0.16745,-0.04001 0.33486,-0.08023 0.50221,-0.12064c0.43894,-0.10597 0.87824,-0.21041 1.31757,-0.31476c0.08706,-0.0207 0.17412,-0.04141 0.26382,-0.06274c0.84728,-0.20066 1.69749,-0.38673 2.54983,-0.56468c0.6103,-0.12896 1.2093,-0.28288 1.81016,-0.45026c0.30812,-0.0827 0.6167,-0.15589 0.92807,-0.22523c0.09963,-0.02234 0.19927,-0.04468 0.30192,-0.06769c0.20049,-0.04449 0.40117,-0.08811 0.60203,-0.13088c0.65717,-0.14931 1.2336,-0.36993 1.84152,-0.65918c0.77496,-0.3579 1.58061,-0.64727 2.37677,-0.95422c0.72954,-0.28336 1.44566,-0.58163 2.15569,-0.91066c0.56563,-0.25397 1.14439,-0.47434 1.72278,-0.69731c0.121,-0.04699 0.24201,-0.09397 0.36668,-0.14238c0.29405,-0.11413 0.58822,-0.22793 0.88251,-0.34141c0,-0.11438 0,-0.22875 0,-0.3466c-0.2303,-0.20072 -0.2303,-0.20072 -0.5375,-0.38947c-0.11506,-0.07517 -0.23011,-0.15034 -0.34866,-0.22779c-0.18685,-0.11979 -0.18685,-0.11979 -0.37748,-0.24201c-0.25616,-0.16754 -0.5122,-0.33528 -0.76811,-0.5032c-0.12655,-0.08271 -0.2531,-0.16542 -0.38349,-0.25064c-1.34393,-0.88485 -2.62332,-1.83854 -3.86853,-2.85678c-0.25476,-0.20733 -0.51298,-0.4102 -0.77093,-0.61354c-1.0479,-0.83867 -2.06102,-1.72268 -3.05357,-2.62588c-0.18265,-0.16549 -0.36606,-0.33014 -0.55053,-0.49361c-0.69706,-0.61886 -1.36552,-1.26167 -2.02312,-1.92222c-0.16453,-0.16515 -0.32967,-0.32967 -0.49488,-0.49414c-0.6,-0.60083 -1.17505,-1.21315 -1.7269,-1.85822c-0.16804,-0.18574 -0.33645,-0.37114 -0.50545,-0.556c-0.444,-0.49258 -0.8686,-0.99739 -1.2853,-1.51321c-0.21027,-0.25988 -0.42195,-0.51811 -0.63543,-0.77533c-1.90569,-2.30488 -3.5863,-4.78572 -5.19332,-7.30557c-0.05965,-0.09295 -0.11929,-0.1859 -0.18075,-0.28167c-0.05276,-0.08283 -0.10552,-0.16566 -0.15987,-0.25101c-0.04196,-0.0585 -0.08392,-0.117 -0.12715,-0.17728c-0.03813,0 -0.07625,0 -0.11553,0zM299.3838,216.74802c-0.45336,0.6088 -0.89861,1.21818 -1.29974,1.86296c-0.86206,1.37458 -1.82801,2.68408 -2.82981,3.95947c-0.15111,0.19286 -0.30096,0.38665 -0.45068,0.5806c-1.08525,1.40073 -2.23974,2.73334 -3.44496,4.03176c-0.13535,0.14799 -0.26922,0.29734 -0.40239,0.44729c-0.62156,0.69926 -1.26561,1.37086 -1.92863,2.0309c-0.16515,0.16453 -0.32967,0.32967 -0.49414,0.49488c-0.6008,0.59996 -1.21185,1.17657 -1.85822,1.7269c-0.13495,0.11805 -0.26975,0.23629 -0.40436,0.35472c-3.24341,2.8358 -6.70877,5.30508 -10.34016,7.61702c0.29779,0.29779 0.63617,0.41985 1.01858,0.57902c0.11856,0.05012 0.11856,0.05012 0.23952,0.10124c0.25675,0.10836 0.51384,0.2159 0.77094,0.32343c0.17567,0.07396 0.35132,0.14796 0.52695,0.22201c0.95015,0.40007 1.90201,0.79585 2.85661,1.1852c0.42146,0.17252 0.83811,0.35284 1.25219,0.5424c0.09364,0.04279 0.18728,0.08558 0.28375,0.12966c0.21854,0.10062 0.4362,0.20318 0.65289,0.30773c1.24939,0.57499 2.54594,0.88247 3.87962,1.20172c0.24424,0.05948 0.48845,0.11909 0.73263,0.17883c0.37346,0.09131 0.74695,0.18248 1.12058,0.27309c0.82599,0.20037 1.65035,0.4064 2.47385,0.61676c0.21295,0.0542 0.42591,0.10839 0.63887,0.16258c0.30182,0.07683 0.60358,0.15386 0.90516,0.23162c0.27551,0.07093 0.55127,0.14085 0.8271,0.21055c0.0799,0.02087 0.15981,0.04174 0.24213,0.06324c0.4585,0.11471 0.86348,0.18711 1.33471,0.14075c0.29229,-0.19313 0.29229,-0.19313 0.55188,-0.47502c0.10336,-0.10379 0.20673,-0.20758 0.31323,-0.31451c0.11091,-0.11483 0.22179,-0.22969 0.33264,-0.34458c0.11579,-0.11737 0.23174,-0.23459 0.34784,-0.35164c0.30545,-0.30875 0.60882,-0.61947 0.91173,-0.9307c0.36576,-0.37514 0.73366,-0.74817 1.10151,-1.12126c0.28685,-0.29095 0.57329,-0.58226 0.85845,-0.87487c0.51793,-0.52911 1.04014,-1.04003 1.60285,-1.52127c0.6509,-0.56377 1.25969,-1.17644 1.87424,-1.77915c0.17278,-0.16851 0.34658,-0.33597 0.52136,-0.50241c0.25423,-0.24231 0.50491,-0.48784 0.75511,-0.73429c0.11785,-0.11034 0.11785,-0.11034 0.23808,-0.22291c0.38955,-0.37841 0.38955,-0.37841 0.55476,-0.8773c-0.02667,-0.24156 -0.07733,-0.46089 -0.14342,-0.6946c-0.0293,-0.1397 -0.0586,-0.27941 -0.08879,-0.42335c-0.03444,-0.14281 -0.06888,-0.28563 -0.10436,-0.43277c-0.0188,-0.07874 -0.0376,-0.15747 -0.05696,-0.23859c-0.04001,-0.16745 -0.08023,-0.33486 -0.12064,-0.50221c-0.10597,-0.43894 -0.21041,-0.87824 -0.31476,-1.31757c-0.0207,-0.08706 -0.04141,-0.17412 -0.06274,-0.26382c-0.20066,-0.84728 -0.38673,-1.69749 -0.56468,-2.54983c-0.12896,-0.6103 -0.28288,-1.2093 -0.45026,-1.81016c-0.0827,-0.30812 -0.15589,-0.6167 -0.22523,-0.92807c-0.02234,-0.09963 -0.04468,-0.19927 -0.06769,-0.30192c-0.04449,-0.20049 -0.08811,-0.40117 -0.13088,-0.60203c-0.15067,-0.66313 -0.37446,-1.246 -0.6664,-1.85958c-0.30122,-0.64739 -0.54343,-1.31966 -0.79807,-1.98639c-0.20961,-0.54351 -0.42702,-1.07867 -0.67244,-1.60708c-0.38834,-0.84039 -0.71128,-1.70675 -1.0396,-2.5719c-0.0821,-0.21586 -0.16524,-0.43132 -0.24841,-0.64677c-0.07253,-0.19025 -0.07253,-0.19025 -0.14653,-0.38434c-0.10417,-0.3052 -0.10417,-0.3052 -0.36479,-0.40544zM223.13234,247.82626c0.0796,0.48773 0.2376,0.9304 0.41787,1.38811c0.03084,0.07938 0.06168,0.15875 0.09345,0.24053c0.10202,0.26201 0.20482,0.52371 0.30778,0.78536c0.05312,0.13532 0.05312,0.13532 0.10732,0.27336c0.18803,0.47879 0.37668,0.95732 0.56582,1.43568c0.19305,0.48861 0.38393,0.97803 0.57429,1.46768c0.14855,0.38085 0.29876,0.76103 0.4494,1.14105c0.07093,0.17977 0.14127,0.35978 0.21093,0.54005c0.47251,1.22054 1.04602,2.30553 1.769,3.39672c0.17549,0.26793 0.34068,0.54167 0.50498,0.81656c0.05347,0.08936 0.10693,0.17871 0.16202,0.27078c0.05242,0.08802 0.10485,0.17603 0.15886,0.26672c0.11809,0.19752 0.23618,0.39504 0.35427,0.59256c0.05646,0.09459 0.11293,0.18918 0.1711,0.28663c0.26695,0.44698 0.53494,0.89333 0.80323,1.33951c0.24836,0.41332 0.49521,0.82749 0.74106,1.24231c0.09036,0.15191 0.09036,0.15191 0.18255,0.30688c0.11664,0.1961 0.23296,0.3924 0.34885,0.58895c0.10716,0.17981 0.2162,0.35852 0.32744,0.53583c0.12094,0.19694 0.2362,0.3975 0.34503,0.60137c0.35617,0.61184 0.35617,0.61184 0.94875,0.9586c0.37142,0.03977 0.72735,0.04234 1.10079,0.03252c0.1392,0.00096 0.27839,0.00191 0.42181,0.0029c0.37955,0.00151 0.75863,-0.00206 1.13813,-0.00799c0.39734,-0.00509 0.79466,-0.00394 1.19203,-0.0034c0.57972,0.00019 1.15935,-0.00193 1.73904,-0.00674c1.00832,-0.00831 2.01598,-0.00298 3.02425,0.00922c0.47946,0.00557 0.95894,0.00957 1.43842,0.01352c0.38339,0.00318 0.76675,0.00695 1.15013,0.0117c0.42646,0.00476 0.85283,0.0065 1.27931,0.00741c0.12651,0.00201 0.25303,0.00402 0.38338,0.0061c0.11589,-0.00033 0.23177,-0.00066 0.35117,-0.00099c0.10051,0.00068 0.20103,0.00136 0.30459,0.00205c0.45557,-0.09489 0.6613,-0.41168 0.91017,-0.7841c0.08303,-0.14396 0.08303,-0.14396 0.16774,-0.29083c0.06213,-0.10669 0.12426,-0.21338 0.18828,-0.3233c0.09691,-0.16858 0.09691,-0.16858 0.19578,-0.34056c0.13494,-0.2316 0.27002,-0.46312 0.40527,-0.69455c0.09611,-0.16472 0.09611,-0.16472 0.19417,-0.33278c0.25028,-0.42498 0.51354,-0.8405 0.78154,-1.25444c0.26092,-0.40431 0.51596,-0.81217 0.77082,-1.22031c0.04945,-0.07918 0.09891,-0.15837 0.14986,-0.23995c0.38064,-0.6102 0.75871,-1.22194 1.13454,-1.83512c0.15614,-0.25396 0.31305,-0.50727 0.47116,-0.75999c0.04094,-0.06572 0.08187,-0.13145 0.12405,-0.19916c0.11274,-0.18093 0.22585,-0.36163 0.33898,-0.54232c0.58294,-0.9932 0.99436,-2.05087 1.42069,-3.11712c0.38004,-0.94929 0.7621,-1.89352 1.19163,-2.82177c0.28937,-0.64059 0.55089,-1.29294 0.81575,-1.94394c0.05858,-0.14254 0.11717,-0.28508 0.17578,-0.42761c0.05473,-0.13426 0.10946,-0.26852 0.16585,-0.40685c0.04957,-0.12139 0.09913,-0.24277 0.1502,-0.36784c0.12078,-0.27664 0.12078,-0.27664 0.10749,-0.52348c-0.10311,0.02171 -0.10311,0.02171 -0.2083,0.04386c-5.22051,1.09101 -10.44861,1.74043 -15.78573,1.72523c-0.15082,-0.00017 -0.30164,-0.00034 -0.45704,-0.00052c-2.42922,-0.00397 -4.82093,-0.09909 -7.2331,-0.38218c-0.15343,-0.01699 -0.30687,-0.03386 -0.46032,-0.0506c-2.65474,-0.29176 -5.28478,-0.74619 -7.87804,-1.38743c-0.31119,-0.06088 -0.58822,-0.07609 -0.90423,-0.06389z" fill="#ffffff"/><path d="M232.9526,87.58267c10.61141,-0.02489 10.61141,-0.02489 14.44156,0.11553c0.15705,0.00561 0.3141,0.01121 0.47116,0.01681c0.8059,0.02927 1.61158,0.06167 2.41716,0.09872c0,0.03813 0,0.07625 0,0.11553c-1.9013,0.00272 -3.8026,0.00474 -5.7039,0.00599c-0.88308,0.00059 -1.76615,0.0014 -2.64922,0.00273c-0.7709,0.00116 -1.54181,0.0019 -2.31271,0.00215c-0.40708,0.00015 -0.81416,0.00049 -1.22124,0.00134c-1.81796,0.00367 -3.62791,-0.01703 -5.44281,-0.12775c0,-0.07625 0,-0.1525 0,-0.23107z" fill="#ffffff"/><path d="M147.80515,169.72629c0.03813,0 0.07625,0 0.11553,0c0.00272,1.78278 0.00474,3.56557 0.00599,5.34836c0.00059,0.82804 0.0014,1.65607 0.00273,2.48411c0.00116,0.72288 0.0019,1.44576 0.00215,2.16864c0.00015,0.3817 0.00055,0.7634 0.00134,1.14509c0.00341,1.71861 -0.01833,3.42846 -0.12775,5.14389c-0.07625,0.03813 -0.1525,0.07625 -0.23107,0.11553c-0.00715,-1.3912 -0.01181,-2.7824 -0.01444,-4.17361c-0.0002,-0.10365 -0.0004,-0.20729 -0.0006,-0.31408c-0.00501,-2.97336 0.02489,-5.94251 0.13057,-8.91408c0.00276,-0.07774 0.00553,-0.15548 0.00837,-0.23558c0.03304,-0.92286 0.06857,-1.84561 0.10716,-2.76826z" fill="#ffffff"/><path d="M332.31056,174.00099c0.03813,0 0.07625,0 0.11553,0c0.00717,1.32862 0.01181,2.65724 0.01444,3.98587c0.0002,0.09933 0.0004,0.19866 0.0006,0.301c0.00519,2.95602 -0.02948,5.90783 -0.13057,8.86217c-0.00276,0.0808 -0.00553,0.1616 -0.00837,0.24485c-0.03324,0.96549 -0.06882,1.93088 -0.10716,2.89619c-0.03813,0 -0.07625,0 -0.11553,0c-0.00271,-1.8189 -0.00474,-3.6378 -0.00599,-5.45669c-0.00059,-0.84475 -0.0014,-1.6895 -0.00273,-2.53426c-0.00116,-0.73722 -0.0019,-1.47444 -0.00215,-2.21166c-0.00015,-0.3895 -0.00056,-0.779 -0.00134,-1.1685c-0.00698,-3.59292 -0.00698,-3.59292 0.12775,-4.80344c0.03813,-0.03813 0.07625,-0.07625 0.11553,-0.11553z" fill="#ffffff"/><path d="M229.71769,272.08809c4.84197,0 9.68393,0 14.67263,0c0.05719,0.17157 0.05719,0.17157 0.11553,0.3466c-4.93227,0.01541 -9.86066,0.02094 -14.78816,-0.23107c0,-0.03813 0,-0.07625 0,-0.11553z" fill="#ffffff"/><path d="M149.19154,167.9933c0.07625,0.03813 0.1525,0.07625 0.23107,0.11553c-0.22875,0.22875 -0.45751,0.45751 -0.6932,0.6932c-0.11438,-0.03813 -0.22875,-0.07625 -0.3466,-0.11553c0.26688,-0.22875 0.53376,-0.45751 0.80873,-0.6932z" fill="#ffffff"/><path d="" fill="#11374d"/></g></g></svg>